<svg xmlns="http://www.w3.org/2000/svg" xmlns:xlink="http://www.w3.org/1999/xlink" viewBox="58.18299865722656 3.2440004348754883 330.7650146484375 182.7209930419922" width="362.0438014721411" height="200"><path d="M 63.183,93.123 C 67.703,85.901 68.330,86.521 73.477,79.920" stroke-width="4.244" stroke="black" fill="none" stroke-linecap="round"></path><path d="M 73.477,79.920 C 78.752,75.585 78.185,75.042 84.147,71.405" stroke-width="3.389" stroke="black" fill="none" stroke-linecap="round"></path><path d="M 84.147,71.405 C 90.508,66.768 90.366,66.586 96.704,61.920" stroke-width="2.982" stroke="black" fill="none" stroke-linecap="round"></path><path d="M 96.704,61.920 C 105.501,55.054 105.490,55.046 114.111,47.962" stroke-width="2.636" stroke="black" fill="none" stroke-linecap="round"></path><path d="M 114.111,47.962 C 120.226,42.732 120.321,42.847 126.345,37.507" stroke-width="2.752" stroke="black" fill="none" stroke-linecap="round"></path><path d="M 126.345,37.507 C 133.762,31.299 133.699,31.227 141.057,24.951" stroke-width="2.666" stroke="black" fill="none" stroke-linecap="round"></path><path d="M 141.057,24.951 C 145.491,20.891 145.591,21.005 150.003,16.921" stroke-width="3.026" stroke="black" fill="none" stroke-linecap="round"></path><path d="M 150.003,16.921 C 153.224,13.837 153.332,13.992 156.740,11.154" stroke-width="3.466" stroke="black" fill="none" stroke-linecap="round"></path><path d="M 156.740,11.154 C 161.375,7.140 158.910,9.499 161.375,8.244" stroke-width="3.944" stroke="black" fill="none" stroke-linecap="round"></path><path d="M 161.375,8.244 C 159.338,13.062 161.375,10.346 156.740,17.567" stroke-width="4.171" stroke="black" fill="none" stroke-linecap="round"></path><path d="M 156.740,17.567 C 151.546,26.138 151.739,26.239 146.177,34.597" stroke-width="2.915" stroke="black" fill="none" stroke-linecap="round"></path><path d="M 146.177,34.597 C 140.598,42.778 140.875,42.952 135.399,51.196" stroke-width="2.686" stroke="black" fill="none" stroke-linecap="round"></path><path d="M 135.399,51.196 C 129.203,61.070 129.280,61.101 123.542,71.243" stroke-width="2.459" stroke="black" fill="none" stroke-linecap="round"></path><path d="M 123.542,71.243 C 117.408,82.671 117.239,82.572 111.471,94.201" stroke-width="2.231" stroke="black" fill="none" stroke-linecap="round"></path><path d="M 111.471,94.201 C 103.528,109.752 103.477,109.724 95.680,125.350" stroke-width="1.943" stroke="black" fill="none" stroke-linecap="round"></path><path d="M 95.680,125.350 C 90.556,135.440 90.594,135.458 85.602,145.613" stroke-width="2.250" stroke="black" fill="none" stroke-linecap="round"></path><path d="M 85.602,145.613 C 80.732,156.125 80.532,156.026 75.632,166.523" stroke-width="2.283" stroke="black" fill="none" stroke-linecap="round"></path><path d="M 75.632,166.523 C 73.811,170.185 73.833,170.191 71.806,173.744" stroke-width="3.131" stroke="black" fill="none" stroke-linecap="round"></path><path d="M 71.806,173.744 C 66.868,181.871 69.742,177.407 67.495,180.965" stroke-width="3.548" stroke="black" fill="none" stroke-linecap="round"></path><path d="M 67.495,180.965 C 71.248,174.836 68.566,179.419 75.201,168.840" stroke-width="4.098" stroke="black" fill="none" stroke-linecap="round"></path><path d="M 75.201,168.840 C 78.439,163.915 78.443,163.924 81.884,159.140" stroke-width="3.457" stroke="black" fill="none" stroke-linecap="round"></path><path d="M 81.884,159.140 C 86.459,152.467 86.603,152.598 91.531,146.206" stroke-width="3.036" stroke="black" fill="none" stroke-linecap="round"></path><path d="M 91.531,146.206 C 94.867,142.097 94.839,142.120 98.644,138.445" stroke-width="3.277" stroke="black" fill="none" stroke-linecap="round"></path><path d="M 98.644,138.445 C 102.274,135.179 102.143,135.064 106.081,132.140" stroke-width="3.529" stroke="black" fill="none" stroke-linecap="round"></path><path d="M 106.081,132.140 C 110.989,129.596 108.148,130.490 110.393,129.068" stroke-width="4.359" stroke="black" fill="none" stroke-linecap="round"></path><path d="M 110.393,129.068 C 106.840,129.594 109.588,128.357 103.279,129.661" stroke-width="4.542" stroke="black" fill="none" stroke-linecap="round"></path><path d="M 103.279,129.661 C 96.225,130.669 99.726,129.728 96.165,129.338" stroke-width="4.601" stroke="black" fill="none" stroke-linecap="round"></path><path d="M 96.165,129.338 C 99.253,125.990 96.091,127.678 103.010,123.679" stroke-width="4.501" stroke="black" fill="none" stroke-linecap="round"></path><path d="M 103.010,123.679 C 108.764,120.675 108.495,120.305 114.650,117.967" stroke-width="3.425" stroke="black" fill="none" stroke-linecap="round"></path><path d="M 114.650,117.967 C 117.879,116.368 117.899,116.472 121.279,115.272" stroke-width="3.736" stroke="black" fill="none" stroke-linecap="round"></path><path d="M 121.279,115.272 C 127.617,113.294 127.579,113.242 134.051,111.715" stroke-width="3.313" stroke="black" fill="none" stroke-linecap="round"></path><path d="M 134.051,111.715 C 139.186,110.599 139.150,110.465 144.345,109.614" stroke-width="3.426" stroke="black" fill="none" stroke-linecap="round"></path><path d="M 144.345,109.614 C 149.843,107.690 147.512,109.009 150.704,108.536" stroke-width="4.244" stroke="black" fill="none" stroke-linecap="round"></path><path d="M 150.704,108.536 C 149.206,110.712 151.406,109.226 147.470,112.685" stroke-width="4.236" stroke="black" fill="none" stroke-linecap="round"></path><path d="M 147.470,112.685 C 143.525,116.433 143.898,116.748 140.087,120.607" stroke-width="3.643" stroke="black" fill="none" stroke-linecap="round"></path><path d="M 140.087,120.607 C 134.927,126.610 135.091,126.673 130.602,133.164" stroke-width="3.038" stroke="black" fill="none" stroke-linecap="round"></path><path d="M 130.602,133.164 C 125.847,139.790 126.197,139.840 122.626,147.068" stroke-width="2.936" stroke="black" fill="none" stroke-linecap="round"></path><path d="M 122.626,147.068 C 119.671,152.927 120.135,152.697 119.177,158.978" stroke-width="3.096" stroke="black" fill="none" stroke-linecap="round"></path><path d="M 119.177,158.978 C 118.756,165.523 118.701,164.810 120.686,170.834" stroke-width="3.238" stroke="black" fill="none" stroke-linecap="round"></path><path d="M 120.686,170.834 C 122.417,173.831 121.586,173.310 124.836,174.552" stroke-width="3.878" stroke="black" fill="none" stroke-linecap="round"></path><path d="M 124.836,174.552 C 128.098,175.135 127.294,175.286 130.441,173.744" stroke-width="4.067" stroke="black" fill="none" stroke-linecap="round"></path><path d="M 130.441,173.744 C 135.184,170.420 135.131,170.959 138.902,166.199" stroke-width="3.556" stroke="black" fill="none" stroke-linecap="round"></path><path d="M 138.902,166.199 C 142.280,162.072 142.352,162.282 144.776,157.469" stroke-width="3.499" stroke="black" fill="none" stroke-linecap="round"></path><path d="M 144.776,157.469 C 147.154,153.029 147.131,153.126 148.602,148.307" stroke-width="3.479" stroke="black" fill="none" stroke-linecap="round"></path><path d="M 148.602,148.307 C 151.241,139.162 149.956,143.894 150.381,139.200" stroke-width="3.589" stroke="black" fill="none" stroke-linecap="round"></path><path d="M 150.381,139.200 C 145.979,143.563 149.382,139.243 144.884,148.469" stroke-width="4.258" stroke="black" fill="none" stroke-linecap="round"></path><path d="M 144.884,148.469 C 144.236,153.697 144.066,152.131 146.554,156.337" stroke-width="3.940" stroke="black" fill="none" stroke-linecap="round"></path><path d="M 146.554,156.337 C 150.558,159.282 148.898,159.006 154.207,159.086" stroke-width="4.324" stroke="black" fill="none" stroke-linecap="round"></path><path d="M 154.207,159.086 C 157.167,157.688 157.079,158.931 159.596,155.637" stroke-width="4.105" stroke="black" fill="none" stroke-linecap="round"></path><path d="M 159.596,155.637 C 163.011,152.561 163.068,152.704 166.009,149.116" stroke-width="3.781" stroke="black" fill="none" stroke-linecap="round"></path><path d="M 166.009,149.116 C 170.626,144.144 170.421,144.046 174.416,138.607" stroke-width="3.242" stroke="black" fill="none" stroke-linecap="round"></path><path d="M 174.416,138.607 C 178.075,132.988 178.171,133.123 181.099,127.074" stroke-width="3.235" stroke="black" fill="none" stroke-linecap="round"></path><path d="M 181.099,127.074 C 182.576,124.549 182.360,124.608 182.985,121.847" stroke-width="3.840" stroke="black" fill="none" stroke-linecap="round"></path><path d="M 182.985,121.847 C 184.739,115.748 183.465,118.675 182.877,115.326" stroke-width="3.995" stroke="black" fill="none" stroke-linecap="round"></path><path d="M 182.877,115.326 C 176.983,116.208 179.862,114.643 173.231,119.637" stroke-width="4.198" stroke="black" fill="none" stroke-linecap="round"></path><path d="M 173.231,119.637 C 168.477,125.120 168.226,124.211 165.363,131.332" stroke-width="3.344" stroke="black" fill="none" stroke-linecap="round"></path><path d="M 165.363,131.332 C 163.459,135.326 163.546,134.955 163.369,139.308" stroke-width="3.596" stroke="black" fill="none" stroke-linecap="round"></path><path d="M 163.369,139.308 C 163.287,143.045 163.297,142.467 165.039,145.613" stroke-width="3.912" stroke="black" fill="none" stroke-linecap="round"></path><path d="M 165.039,145.613 C 167.666,149.232 167.167,148.731 171.129,150.679" stroke-width="3.859" stroke="black" fill="none" stroke-linecap="round"></path><path d="M 171.129,150.679 C 174.596,151.549 174.053,151.900 177.812,150.948" stroke-width="3.982" stroke="black" fill="none" stroke-linecap="round"></path><path d="M 177.812,150.948 C 181.723,150.089 181.521,150.255 184.979,148.092" stroke-width="3.951" stroke="black" fill="none" stroke-linecap="round"></path><path d="M 184.979,148.092 C 189.808,144.905 189.807,145.131 193.979,141.032" stroke-width="3.578" stroke="black" fill="none" stroke-linecap="round"></path><path d="M 193.979,141.032 C 196.866,138.069 196.976,138.249 199.315,134.781" stroke-width="3.674" stroke="black" fill="none" stroke-linecap="round"></path><path d="M 199.315,134.781 C 201.510,131.802 201.501,131.844 203.249,128.583" stroke-width="3.799" stroke="black" fill="none" stroke-linecap="round"></path><path d="M 203.249,128.583 C 205.362,122.770 204.581,126.117 205.458,123.410" stroke-width="4.046" stroke="black" fill="none" stroke-linecap="round"></path><path d="M 205.458,123.410 C 204.387,127.583 205.605,124.386 203.734,131.817" stroke-width="4.546" stroke="black" fill="none" stroke-linecap="round"></path><path d="M 203.734,131.817 C 203.623,134.964 203.256,134.912 203.195,138.068" stroke-width="4.180" stroke="black" fill="none" stroke-linecap="round"></path><path d="M 203.195,138.068 C 203.041,141.335 202.761,141.216 202.009,144.319" stroke-width="4.119" stroke="black" fill="none" stroke-linecap="round"></path><path d="M 202.009,144.319 C 200.556,148.731 200.535,148.583 198.183,152.565" stroke-width="3.790" stroke="black" fill="none" stroke-linecap="round"></path><path d="M 198.183,152.565 C 195.812,156.059 196.003,156.087 192.901,159.032" stroke-width="3.778" stroke="black" fill="none" stroke-linecap="round"></path><path d="M 192.901,159.032 C 189.397,162.440 189.507,162.499 185.572,165.445" stroke-width="3.634" stroke="black" fill="none" stroke-linecap="round"></path><path d="M 185.572,165.445 C 180.415,169.392 180.478,169.446 175.063,173.043" stroke-width="3.248" stroke="black" fill="none" stroke-linecap="round"></path><path d="M 175.063,173.043 C 169.820,177.445 172.359,174.889 169.458,176.439" stroke-width="3.735" stroke="black" fill="none" stroke-linecap="round"></path><path d="M 169.458,176.439 C 170.303,171.295 168.958,175.047 173.339,168.247" stroke-width="4.517" stroke="black" fill="none" stroke-linecap="round"></path><path d="M 173.339,168.247 C 177.726,165.526 176.770,164.801 182.392,163.451" stroke-width="3.696" stroke="black" fill="none" stroke-linecap="round"></path><path d="M 182.392,163.451 C 186.116,161.992 186.025,161.835 189.937,160.864" stroke-width="3.788" stroke="black" fill="none" stroke-linecap="round"></path><path d="M 189.937,160.864 C 193.974,160.035 193.876,159.702 197.913,158.870" stroke-width="3.737" stroke="black" fill="none" stroke-linecap="round"></path><path d="M 197.913,158.870 C 203.506,157.705 203.270,157.286 208.530,155.367" stroke-width="3.428" stroke="black" fill="none" stroke-linecap="round"></path><path d="M 208.530,155.367 C 212.545,153.352 212.479,153.529 215.859,150.517" stroke-width="3.568" stroke="black" fill="none" stroke-linecap="round"></path><path d="M 215.859,150.517 C 219.253,147.471 219.254,147.613 221.949,143.888" stroke-width="3.644" stroke="black" fill="none" stroke-linecap="round"></path><path d="M 221.949,143.888 C 225.593,139.161 225.478,139.199 228.308,133.972" stroke-width="3.351" stroke="black" fill="none" stroke-linecap="round"></path><path d="M 228.308,133.972 C 230.037,130.319 230.147,130.458 231.057,126.482" stroke-width="3.671" stroke="black" fill="none" stroke-linecap="round"></path><path d="M 231.057,126.482 C 232.160,122.923 231.977,123.017 232.189,119.368" stroke-width="3.814" stroke="black" fill="none" stroke-linecap="round"></path><path d="M 232.189,119.368 C 232.989,113.721 232.214,116.241 231.165,113.116" stroke-width="4.008" stroke="black" fill="none" stroke-linecap="round"></path><path d="M 231.165,113.116 C 226.726,113.939 228.839,112.346 223.889,116.619" stroke-width="4.353" stroke="black" fill="none" stroke-linecap="round"></path><path d="M 223.889,116.619 C 220.123,121.068 219.882,120.406 217.476,126.050" stroke-width="3.545" stroke="black" fill="none" stroke-linecap="round"></path><path d="M 217.476,126.050 C 215.546,129.098 216.000,128.828 215.644,132.140" stroke-width="3.912" stroke="black" fill="none" stroke-linecap="round"></path><path d="M 215.644,132.140 C 215.660,137.324 215.762,135.834 217.907,139.523" stroke-width="4.343" stroke="black" fill="none" stroke-linecap="round"></path><path d="M 217.907,139.523 C 220.657,140.080 219.460,141.043 223.243,139.577" stroke-width="4.694" stroke="black" fill="none" stroke-linecap="round"></path><path d="M 223.243,139.577 C 227.429,138.400 227.447,138.760 231.488,136.882" stroke-width="4.503" stroke="black" fill="none" stroke-linecap="round"></path><path d="M 231.488,136.882 C 235.628,135.253 235.647,135.328 239.680,133.433" stroke-width="4.472" stroke="black" fill="none" stroke-linecap="round"></path><path d="M 239.680,133.433 C 242.857,130.193 241.987,132.397 244.207,131.170" stroke-width="4.761" stroke="black" fill="none" stroke-linecap="round"></path><path d="M 244.207,131.170 C 245.723,134.616 246.171,132.591 246.308,138.230" stroke-width="4.646" stroke="black" fill="none" stroke-linecap="round"></path><path d="M 246.308,138.230 C 245.389,148.111 247.124,143.265 247.009,148.469" stroke-width="4.413" stroke="black" fill="none" stroke-linecap="round"></path><path d="M 247.009,148.469 C 250.325,144.289 248.677,148.838 252.883,139.685" stroke-width="4.802" stroke="black" fill="none" stroke-linecap="round"></path><path d="M 252.883,139.685 C 255.088,134.244 255.714,134.589 257.787,129.068" stroke-width="3.599" stroke="black" fill="none" stroke-linecap="round"></path><path d="M 257.787,129.068 C 259.644,125.464 259.641,125.514 261.991,122.224" stroke-width="3.751" stroke="black" fill="none" stroke-linecap="round"></path><path d="M 261.991,122.224 C 263.711,119.405 263.820,119.698 266.141,117.536" stroke-width="3.951" stroke="black" fill="none" stroke-linecap="round"></path><path d="M 266.141,117.536 C 269.052,114.434 268.265,115.902 271.099,115.218" stroke-width="4.116" stroke="black" fill="none" stroke-linecap="round"></path><path d="M 271.099,115.218 C 274.927,117.787 274.118,116.374 276.272,121.416" stroke-width="4.408" stroke="black" fill="none" stroke-linecap="round"></path><path d="M 276.272,121.416 C 277.201,126.951 278.134,126.437 277.512,132.517" stroke-width="3.646" stroke="black" fill="none" stroke-linecap="round"></path><path d="M 277.512,132.517 C 277.632,137.107 277.767,137.083 277.404,141.679" stroke-width="3.597" stroke="black" fill="none" stroke-linecap="round"></path><path d="M 277.404,141.679 C 277.176,145.767 277.201,145.757 276.649,149.816" stroke-width="3.736" stroke="black" fill="none" stroke-linecap="round"></path><path d="M 276.649,149.816 C 274.686,157.934 276.125,153.851 275.302,157.846" stroke-width="3.783" stroke="black" fill="none" stroke-linecap="round"></path><path d="M 275.302,157.846 C 277.177,153.582 276.006,157.746 279.290,149.439" stroke-width="4.529" stroke="black" fill="none" stroke-linecap="round"></path><path d="M 279.290,149.439 C 281.401,145.686 281.246,145.606 283.440,141.894" stroke-width="3.997" stroke="black" fill="none" stroke-linecap="round"></path><path d="M 283.440,141.894 C 286.771,135.720 286.763,135.716 290.015,129.499" stroke-width="3.373" stroke="black" fill="none" stroke-linecap="round"></path><path d="M 290.015,129.499 C 292.964,123.766 292.996,123.783 295.889,118.021" stroke-width="3.188" stroke="black" fill="none" stroke-linecap="round"></path><path d="M 295.889,118.021 C 298.989,111.972 298.973,111.964 302.033,105.895" stroke-width="3.144" stroke="black" fill="none" stroke-linecap="round"></path><path d="M 302.033,105.895 C 306.241,97.571 306.210,97.556 310.332,89.189" stroke-width="2.806" stroke="black" fill="none" stroke-linecap="round"></path><path d="M 310.332,89.189 C 313.385,82.873 313.409,82.885 316.368,76.524" stroke-width="2.993" stroke="black" fill="none" stroke-linecap="round"></path><path d="M 316.368,76.524 C 319.128,70.308 319.259,70.370 322.080,64.183" stroke-width="3.084" stroke="black" fill="none" stroke-linecap="round"></path><path d="M 322.080,64.183 C 325.815,56.015 325.973,56.108 330.056,48.124" stroke-width="2.833" stroke="black" fill="none" stroke-linecap="round"></path><path d="M 330.056,48.124 C 333.033,42.754 332.955,42.731 336.362,37.615" stroke-width="3.071" stroke="black" fill="none" stroke-linecap="round"></path><path d="M 336.362,37.615 C 339.172,33.245 339.177,33.270 342.344,29.154" stroke-width="3.303" stroke="black" fill="none" stroke-linecap="round"></path><path d="M 342.344,29.154 C 345.324,24.592 345.586,24.973 349.188,21.070" stroke-width="3.360" stroke="black" fill="none" stroke-linecap="round"></path><path d="M 349.188,21.070 C 355.017,15.524 351.710,18.772 355.116,17.514" stroke-width="4.183" stroke="black" fill="none" stroke-linecap="round"></path><path d="M 355.116,17.514 C 353.256,27.127 355.394,23.096 349.943,36.214" stroke-width="4.003" stroke="black" fill="none" stroke-linecap="round"></path><path d="M 349.943,36.214 C 345.844,45.532 346.466,45.747 341.535,54.752" stroke-width="2.870" stroke="black" fill="none" stroke-linecap="round"></path><path d="M 341.535,54.752 C 337.066,64.050 337.168,64.098 332.589,73.345" stroke-width="2.632" stroke="black" fill="none" stroke-linecap="round"></path><path d="M 332.589,73.345 C 327.555,83.802 327.554,83.801 322.512,94.255" stroke-width="2.449" stroke="black" fill="none" stroke-linecap="round"></path><path d="M 322.512,94.255 C 315.517,108.358 315.672,108.430 308.823,122.601" stroke-width="2.095" stroke="black" fill="none" stroke-linecap="round"></path><path d="M 308.823,122.601 C 304.412,132.124 304.361,132.097 300.200,141.733" stroke-width="2.423" stroke="black" fill="none" stroke-linecap="round"></path><path d="M 300.200,141.733 C 297.134,148.724 297.137,148.722 294.272,155.798" stroke-width="2.778" stroke="black" fill="none" stroke-linecap="round"></path><path d="M 294.272,155.798 C 288.856,167.980 291.934,161.578 289.799,167.439" stroke-width="3.183" stroke="black" fill="none" stroke-linecap="round"></path><path d="M 289.799,167.439 C 294.112,160.265 291.065,166.713 298.691,153.265" stroke-width="3.829" stroke="black" fill="none" stroke-linecap="round"></path><path d="M 298.691,153.265 C 302.397,147.051 302.627,147.250 306.829,141.409" stroke-width="3.246" stroke="black" fill="none" stroke-linecap="round"></path><path d="M 306.829,141.409 C 310.718,135.904 310.885,136.246 315.667,131.655" stroke-width="3.132" stroke="black" fill="none" stroke-linecap="round"></path><path d="M 315.667,131.655 C 320.473,126.627 320.041,127.901 325.476,125.404" stroke-width="3.275" stroke="black" fill="none" stroke-linecap="round"></path><path d="M 325.476,125.404 C 328.795,125.949 327.964,124.795 330.649,127.990" stroke-width="3.870" stroke="black" fill="none" stroke-linecap="round"></path><path d="M 330.649,127.990 C 332.269,131.885 333.322,130.934 334.529,135.374" stroke-width="3.802" stroke="black" fill="none" stroke-linecap="round"></path><path d="M 334.529,135.374 C 337.171,140.788 337.577,140.076 341.266,144.373" stroke-width="3.501" stroke="black" fill="none" stroke-linecap="round"></path><path d="M 341.266,144.373 C 344.659,146.758 344.096,146.851 348.380,147.499" stroke-width="3.696" stroke="black" fill="none" stroke-linecap="round"></path><path d="M 348.380,147.499 C 352.350,148.009 352.096,148.240 356.140,147.337" stroke-width="3.760" stroke="black" fill="none" stroke-linecap="round"></path><path d="M 356.140,147.337 C 361.528,145.771 361.620,146.366 366.919,144.212" stroke-width="3.430" stroke="black" fill="none" stroke-linecap="round"></path><path d="M 366.919,144.212 C 371.177,143.165 371.121,142.996 375.326,141.787" stroke-width="3.624" stroke="black" fill="none" stroke-linecap="round"></path><path d="M 375.326,141.787 C 379.706,140.330 379.692,140.336 383.948,138.553" stroke-width="3.586" stroke="black" fill="none" stroke-linecap="round"></path></svg>